<svg xmlns="http://www.w3.org/2000/svg" xmlns:xlink="http://www.w3.org/1999/xlink" xml:space="preserve" style="shape-rendering:geometricPrecision;text-rendering:geometricPrecision;image-rendering:optimizeQuality;" viewBox="0 0 0.270953 0.33869625000000003" x="0px" y="0px" fill-rule="evenodd" clip-rule="evenodd"><defs><style type="text/css">
   
    .fil0 {fill:black}
   
  </style></defs><g><path class="fil0" d="M0.197772 -3.93701e-006c-0.0155787,0.00122835 -0.030815,0.00779528 -0.0427323,0.0197087 -0.0265669,0.0265669 -0.0265669,0.0696417 0,0.0962087 0.0265669,0.026563 0.0696417,0.026563 0.0962087,0 0.0119134,-0.0119173 0.0184803,-0.0271535 0.0197087,-0.0427323l-0.0354449 0.0354449 -0.0577205 -0.0154646 -0.0154646 -0.0577205 0.0354449 -0.0354449z"/><path class="fil0" d="M0.133843 0.0964094l-0.125004 0.125004c-0.0269252,0.0269252 0.0137756,0.0676299 0.0407008,0.0407047l0.125008 -0.125004c-0.00907874,-0.00329134 -0.0175866,-0.0085748 -0.0248622,-0.0158465 -0.00727165,-0.00727559 -0.0125512,-0.0157874 -0.0158425,-0.0248583zm-0.0969528 0.137661c-0.00483071,-0.00483071 -0.0126654,-0.00483071 -0.0174961,0 -0.00483071,0.00483071 -0.00483071,0.0126614 0,0.0174921 0.00483071,0.00483071 0.0126654,0.00483071 0.0174961,0 0.00482677,-0.00483071 0.00482677,-0.0126614 0,-0.0174921z"/></g><text x="0" y="15.270957" fill="#000000" font-size="5px" font-weight="bold" font-family="'Helvetica Neue', Helvetica, Arial-Unicode, Arial, Sans-serif">Created by Mr Balind</text><text x="0" y="20.270957" fill="#000000" font-size="5px" font-weight="bold" font-family="'Helvetica Neue', Helvetica, Arial-Unicode, Arial, Sans-serif">from the Noun Project</text></svg>